# xmcd
#
# Track frame offsets: 
#        150
#        17841
#        32598
#        49771
#        64711
#        82950
#        100786
#        114253
#        131143
#        147449
#        167788
#        182882
#        195886
#        210494
#        227863
#        245303
#        260554
#        279169
#        296035
#        312603
#
# Disc length: 4394 seconds
#
# Revision: 3
# Processed by: cddbd v1.5.2PL0 Copyright (c) Steve Scherf et al.
# Submitted via: ExactAudioCopyFreeDBPlugin 1.0
#
DISCID=1d112814
DTITLE=Various Artist - Best Country Hits of Today [CD 3)
DYEAR=2006
DGENRE=Country
TTITLE0=(covered from Brooks and Dunn) - Only in America
TTITLE1=(covered from Brad Paisley) - Wrapped around
TTITLE2=(covered from Alan Jackson and George Strait) - Designated Drink
TTITLE3=(covered from Kenny Chesney) - The good Stuff
TTITLE4=(covered from Shania Twain) - I'm Gonna getcha good
TTITLE5=(covered from Faith Hill) - When the Lights go down
TTITLE6=(covered from Tracy Byrd) - Ten Rounds with José Cuervo
TTITLE7=(covered from A. Anderson) - The Cowboy in me
TTITLE8=(covered from Dixie Chicks) - Long Time gone
TTITLE9=(covered from Martina McBride) - Where would you be
TTITLE10=(covered from Terri Clark) - I just wanna be mad
TTITLE11=(covered from George Strait) - She'll leave you with a Smile
TTITLE12=(covered from Mark Wills) - 19 Somethin'
TTITLE13=(covered from Alan Jackson) - Where I come from
TTITLE14=(covered from Blake Shelton) - The Baby
TTITLE15=(covered from Lee Ann Womack) - Does my Ring burn on your Fin
TTITLE15=ger
TTITLE16=(covered from Montgomery Genrty) - My Town
TTITLE17=(covered from Dixie Chicks) - Landslide
TTITLE18=(covered from Trisha Yearwood and Don Henley) - Inside out
TTITLE19=(covered from Diamond Rio) - I believe
EXTD=Not Original Artists!\nCovered from the Cream of the Best Singers
EXTD=and Musicians from Nashville, Tennessee
EXTT0=
EXTT1=
EXTT2=
EXTT3=
EXTT4=
EXTT5=
EXTT6=
EXTT7=
EXTT8=
EXTT9=
EXTT10=
EXTT11=
EXTT12=
EXTT13=
EXTT14=
EXTT15=
EXTT16=
EXTT17=
EXTT18=
EXTT19=
PLAYORDER=
